<svg xmlns="http://www.w3.org/2000/svg" width="200" height="180" version="1.1">
<polyline points="88,26,84,28" stroke="black" stroke-width="2" fill="none" />
<polyline points="82,32,82,30,74,32,68,40" stroke="black" stroke-width="2" fill="none" />
<polyline points="74,44,76,42" stroke="red" stroke-width="2" fill="none" />
<polyline points="80,38,82,36" stroke="red" stroke-width="2" fill="none" />
<polyline points="86,34,120,56,128,54,136,38,118,30,86,32,86,34" stroke="blue" stroke-width="2" fill="none" />
<polyline points="72,24,68,26" stroke="blue" stroke-width="2" fill="none" />
<polyline points="68,32,64,28,46,50,38,68,34,88,26,86,24,82,16,80,12,72,20,62,20,58,24,56,24,52,28,50,30,42,34,40,38,28,42,26,50,10,56,10,72,24,108,18,122,20,148,30,164,44,168,44,172,52,178,56,186,74,190,98" stroke="blue" stroke-width="2" fill="none" />
<polyline points="184,96,180,120,182,126" stroke="black" stroke-width="2" fill="none" />
<polyline points="180,130,178,128" stroke="black" stroke-width="2" fill="none" />
<polyline points="186,118,174,142,152,164,136,170,128,170" stroke="blue" stroke-width="2" fill="none" />
<polyline points="110,170,104,170,100,170,80,164,74,158,70,158,62,148,58,148,58,144,48,134,40,116,38,92,36,92,40,84" stroke="blue" stroke-width="2" fill="none" />
<polyline points="46,86,50,64,58,50,68,42,74,50,84,102" stroke="blue" stroke-width="2" fill="none" />
<polyline points="80,100,52,80,58,60,68,48" stroke="blue" stroke-width="2" fill="none" />
<polyline points="60,42,58,44" stroke="black" stroke-width="2" fill="none" />
<polyline points="54,50,52,52" stroke="black" stroke-width="2" fill="none" />
<polyline points="50,56,44,72" stroke="black" stroke-width="2" fill="none" />
<polyline points="50,90,48,94,50,96,58,98,60,102,86,116,90,120,90,128" stroke="red" stroke-width="2" fill="none" />
<polyline points="94,132,96,128,100,128,106,128" stroke="red" stroke-width="2" fill="none" />
<polyline points="114,134,146,154" stroke="red" stroke-width="2" fill="none" />
<polyline points="142,158,146,160,166,144" stroke="blue" stroke-width="2" fill="none" />
<polyline points="152,150,116,130,110,124,110,120,118,118,120,120" stroke="red" stroke-width="2" fill="none" />
<polyline points="120,116,178,104,178,100,178,94,182,94,180,88,182,82" stroke="red" stroke-width="2" fill="none" />
<polyline points="180,78,180,76" stroke="black" stroke-width="2" fill="none" />
<polyline points="176,88,178,86,170,86,164,80,156,78,154,74,146,72,142,64" stroke="blue" stroke-width="2" fill="none" />
<polyline points="136,64,134,70,140,76,176,94" stroke="red" stroke-width="2" fill="none" />
<polyline points="190,120,190,128,186,130,182,142,162,162" stroke="blue" stroke-width="2" fill="none" />
<polyline points="158,162,164,168,172,170" stroke="blue" stroke-width="2" fill="none" />
<polyline points="184,170,190,160" stroke="blue" stroke-width="2" fill="none" />
<polyline points="124,122,176,112,168,136,162,142,154,144,122,124,124,122" stroke="blue" stroke-width="2" fill="none" />
<polyline points="90,136,84,148" stroke="red" stroke-width="2" fill="none" />
<polyline points="80,150,82,152,78,154" stroke="red" stroke-width="2" fill="none" />
<polyline points="78,146,78,148,74,146" stroke="red" stroke-width="2" fill="none" />
<polyline points="68,148,82,158,86,158" stroke="black" stroke-width="2" fill="none" />
<polyline points="90,150,96,138,102,134,114,140,116,144,124,146,126,150,134,152,138,158,116,162,94,158,88,152,90,150" stroke="blue" stroke-width="2" fill="none" />
<polyline points="62,170,52,168,8,170" stroke="black" stroke-width="2" fill="none" />
<polyline points="8,158,30,162" stroke="black" stroke-width="2" fill="none" />
<polyline points="46,116,46,112" stroke="black" stroke-width="2" fill="none" />
<polyline points="48,104,50,102,58,106,60,110,68,112,70,116,82,122,82,130,78,132,74,142,68,142,56,128,50,106,48,104" stroke="blue" stroke-width="2" fill="none" />
<polyline points="44,102,44,96,44,88,48,86,70,102,86,108,88,112,94,110,92,102,88,102,90,92,84,74,84,68,84,62,76,42,78,38,116,62,122,64,128,62" stroke="red" stroke-width="2" fill="none" />
<polyline points="138,58,146,48,146,42,140,40" stroke="red" stroke-width="2" fill="none" />
<polyline points="156,44,130,28,116,26" stroke="black" stroke-width="2" fill="none" />
</svg>