<svg xmlns="http://www.w3.org/2000/svg" width="200" height="180" version="1.1">
<polyline points="122,8,70,10,74,18,88,26,108,28,132,22,136,16,140,16,144,8,148,8" stroke="green" stroke-width="2" fill="none" />
<polyline points="154,8,158,8" stroke="green" stroke-width="2" fill="none" />
<polyline points="162,8,164,8" stroke="black" stroke-width="2" fill="none" />
<polyline points="162,14,160,20,156,22,156,28,162,30,160,32" stroke="green" stroke-width="2" fill="none" />
<polyline points="162,32,164,34" stroke="black" stroke-width="2" fill="none" />
<polyline points="172,22,176,28,182,28,184,24,182,18,172,20,172,22" stroke="blue" stroke-width="2" fill="none" />
<polyline points="172,10,164,20,166,30,178,36,184,34,190,38,190,36" stroke="blue" stroke-width="2" fill="none" />
<polyline points="188,38,186,42,178,42" stroke="blue" stroke-width="2" fill="none" />
<polyline points="184,42,184,44" stroke="blue" stroke-width="2" fill="none" />
<polyline points="186,32,190,28" stroke="blue" stroke-width="2" fill="none" />
<polyline points="190,18,184,12,186,10" stroke="blue" stroke-width="2" fill="none" />
<polyline points="154,12,142,26,112,32,106,36,100,36,94,36,90,36,74,22,62,16" stroke="blue" stroke-width="2" fill="none" />
<polyline points="56,10,56,8,68,10" stroke="black" stroke-width="2" fill="none" />
<polyline points="78,10,84,16,92,18,100,18,106,18,112,18,118,18,128,14" stroke="green" stroke-width="2" fill="none" />
<polyline points="130,8,134,8" stroke="black" stroke-width="2" fill="none" />
<polyline points="90,46,92,48,90,46,84,48,72,30,42,16,36,16,30,16,24,16,20,16,8,20" stroke="blue" stroke-width="2" fill="none" />
<polyline points="10,12,8,10" stroke="black" stroke-width="2" fill="none" />
<polyline points="8,30,32,24,56,30,74,46,78,54,76,54,76,62,70,64,70,58,62,50,62,46,38,34,16,36,8,42" stroke="blue" stroke-width="2" fill="none" />
<polyline points="8,54,12,48,22,44,46,46,60,60,62,84,58,94,42,106,24,108,10,102,8,98" stroke="blue" stroke-width="2" fill="none" />
<polyline points="8,112,20,118,24,118,30,118,36,118,56,110,66,100,72,64" stroke="blue" stroke-width="2" fill="none" />
<polyline points="84,54,86,50" stroke="black" stroke-width="2" fill="none" />
<polyline points="88,82,86,108,90,120,108,140,128,148,134,148,140,148,148,148,168,140,182,126,190,104,190,98,190,90,186,76,180,70,182,68,168,54,150,46,136,44,112,50,92,68,88,80,88,82" stroke="black" stroke-width="2" fill="none" />
<polyline points="94,98,96,82,100,80,104,68,108,68,118,58,142,54,164,62,178,80,180,106,174,120,160,134,150,138,144,138,138,138,132,138,128,138,116,134,100,118,96,100,94,98" stroke="black" stroke-width="2" fill="none" />
<polyline points="108,84,110,78,124,66,130,64,152,66,168,82,170,88,168,112,156,124,146,128,124,126,110,114,106,106,106,100,106,94,106,86,108,84" stroke="black" stroke-width="2" fill="none" />
<polyline points="116,88,116,84,128,74,140,72,154,78,162,92,158,110,148,118,140,120,128,118,118,110,114,102,114,96,114,90,116,88" stroke="black" stroke-width="2" fill="none" />
<polyline points="126,88,132,82,146,84,152,92,150,104,142,110,130,108,124,102,124,96,124,90,126,88" stroke="black" stroke-width="2" fill="none" />
<polyline points="132,96,134,102,140,102,144,96,142,92,132,94,132,96" stroke="black" stroke-width="2" fill="none" />
<polyline points="190,68,188,62,182,58,182,54,176,52,172,46,168,46,166,42,136,36,114,40,102,46,100,50,96,50,94,56,86,62,84,70,80,72,76,88,76,94,76,100,76,106,86,132,102,148,130,158,156,156,170,150,188,134,190,128" stroke="black" stroke-width="2" fill="none" />
<polyline points="190,146,184,148,174,158,170,158,162,166,162,170" stroke="red" stroke-width="2" fill="none" />
<polyline points="152,170,146,166" stroke="black" stroke-width="2" fill="none" />
<polyline points="142,170,144,168,142,170" stroke="red" stroke-width="2" fill="none" />
<polyline points="126,170,122,164,114,164,108,160" stroke="red" stroke-width="2" fill="none" />
<polyline points="114,166,114,170" stroke="red" stroke-width="2" fill="none" />
<polyline points="106,170,96,158,84,154,72,156,70,160,64,162,60,170" stroke="red" stroke-width="2" fill="none" />
<polyline points="50,170,56,158,68,148,86,146" stroke="red" stroke-width="2" fill="none" />
<polyline points="94,150,82,144,84,140,78,136,62,140,48,152,40,170" stroke="red" stroke-width="2" fill="none" />
<polyline points="30,170,36,152,40,148,30,146,22,162,22,170" stroke="red" stroke-width="2" fill="none" />
<polyline points="10,170,8,168,10,170" stroke="red" stroke-width="2" fill="none" />
<polyline points="8,160,12,154,12,148,12,144,8,144" stroke="blue" stroke-width="2" fill="none" />
<polyline points="8,132,28,138,44,136,64,128,70,122,70,116,66,114" stroke="blue" stroke-width="2" fill="none" />
<polyline points="68,104,66,114,62,114,58,120,44,126,22,128,8,122" stroke="blue" stroke-width="2" fill="none" />
<polyline points="8,82,10,90,20,98,26,98,32,98,38,98,50,90,54,80,52,64,42,54,36,52,30,52,26,52,16,56,10,62,8,70" stroke="blue" stroke-width="2" fill="none" />
<polyline points="18,68,24,62,30,62,38,62,44,70,42,84,32,90,22,88,16,82,16,76,16,70,18,68" stroke="blue" stroke-width="2" fill="none" />
<polyline points="24,76,30,82,36,76,32,70,24,74,24,76" stroke="blue" stroke-width="2" fill="none" />
<polyline points="72,126,74,130" stroke="blue" stroke-width="2" fill="none" />
<polyline points="70,170,74,166,86,164,96,170" stroke="red" stroke-width="2" fill="none" />
<polyline points="172,170,180,160,190,156" stroke="red" stroke-width="2" fill="none" />
<polyline points="190,166,182,170" stroke="red" stroke-width="2" fill="none" />
</svg>